<svg xmlns="http://www.w3.org/2000/svg" viewBox="0 0 100 100" width="100" height="100">
  <rect width="100" height="100" fill="white"/>
  <!-- Top-left finder pattern -->
  <rect x="5" y="5" width="35" height="35" fill="black"/>
  <rect x="10" y="10" width="25" height="25" fill="white"/>
  <rect x="15" y="15" width="15" height="15" fill="black"/>
  <!-- Top-right finder pattern -->
  <rect x="60" y="5" width="35" height="35" fill="black"/>
  <rect x="65" y="10" width="25" height="25" fill="white"/>
  <rect x="70" y="15" width="15" height="15" fill="black"/>
  <!-- Bottom-left finder pattern -->
  <rect x="5" y="60" width="35" height="35" fill="black"/>
  <rect x="10" y="65" width="25" height="25" fill="white"/>
  <rect x="15" y="70" width="15" height="15" fill="black"/>
  <!-- Data pattern (simplified) -->
  <rect x="50" y="50" width="5" height="5" fill="black"/>
  <rect x="55" y="55" width="5" height="5" fill="black"/>
  <rect x="45" y="55" width="5" height="5" fill="black"/>
  <rect x="60" y="50" width="5" height="5" fill="black"/>
  <rect x="50" y="60" width="5" height="5" fill="black"/>
  <rect x="45" y="65" width="5" height="5" fill="black"/>
  <rect x="55" y="65" width="5" height="5" fill="black"/>
  <rect x="65" y="60" width="5" height="5" fill="black"/>
  <rect x="70" y="65" width="5" height="5" fill="black"/>
  <rect x="75" y="60" width="5" height="5" fill="black"/>
  <rect x="60" y="70" width="5" height="5" fill="black"/>
  <rect x="70" y="75" width="5" height="5" fill="black"/>
  <rect x="50" y="75" width="5" height="5" fill="black"/>
  <rect x="45" y="80" width="5" height="5" fill="black"/>
  <rect x="55" y="85" width="5" height="5" fill="black"/>
  <rect x="65" y="85" width="5" height="5" fill="black"/>
  <rect x="75" y="85" width="5" height="5" fill="black"/>
  <rect x="85" y="75" width="5" height="5" fill="black"/>
  <rect x="85" y="85" width="5" height="5" fill="black"/>
  <rect x="45" y="45" width="5" height="5" fill="black"/>
  <rect x="50" y="45" width="5" height="5" fill="black"/>
  <rect x="55" y="45" width="5" height="5" fill="black"/>
  <rect x="60" y="45" width="5" height="5" fill="black"/>
  <rect x="45" y="50" width="5" height="5" fill="black"/>
</svg>
